# xmcd
#
# Track frame offsets: 
#        150
#        19880
#        39937
#        58693
#        74957
#        92499
#        106309
#        124714
#        139531
#        155866
#        173265
#
# Disc length: 2623 seconds
#
# Revision: 3
# Processed by: cddbd v1.5.2PL0 Copyright (c) Steve Scherf et al.
# Submitted via: ExactAudioCopy v1.0b3
#
DISCID=900a3d0b
DTITLE=Toni Braxton and Babyface - Love Marriage and Divorce
DYEAR=2014
DGENRE=Soul
TTITLE0=Roller Coaster
TTITLE1=Sweat
TTITLE2=Hurt You
TTITLE3=Where Did We Go Wrong
TTITLE4=I Hope That You're Okay (performed by Babyface)
TTITLE5=I Wish (performed by Toni Braxton)
TTITLE6=Take It Back
TTITLE7=Reunited
TTITLE8=I'd Rather Be Broke (performed by Toni Braxton)
TTITLE9=Heart Attack
TTITLE10=The D Word
EXTD=
EXTT0=
EXTT1=
EXTT2=
EXTT3=
EXTT4=
EXTT5=
EXTT6=
EXTT7=
EXTT8=
EXTT9=
EXTT10=
PLAYORDER=
